<svg width="135" height="40" viewBox="0 0 135 40" fill="none" xmlns="http://www.w3.org/2000/svg">
  <rect width="135" height="40" rx="6" fill="black"/>
  <path d="M28.9 19.7C28.9 16.3 31.7 14.8 31.8 14.7C30.3 12.5 28 12.2 27.2 12.1C25.3 11.9 23.5 13.2 22.5 13.2C21.5 13.2 20 12.2 18.5 12.2C16.4 12.2 14.4 13.5 13.4 15.5C11.2 19.6 12.9 25.5 15 28.8C16 30.4 17.2 32.2 18.8 32.1C20.3 32 20.9 31.1 22.7 31.1C24.5 31.1 25 32.1 26.6 32C28.3 31.9 29.3 30.3 30.3 28.7C31.5 26.8 32 24.9 32 24.8C31.9 24.7 28.9 23.7 28.9 19.7Z" fill="white"/>
  <path d="M25.9 10.3C26.7 9.3 27.2 7.9 27.1 6.5C25.9 6.6 24.4 7.3 23.6 8.3C22.8 9.2 22.2 10.6 22.4 12C23.7 12.1 25.1 11.3 25.9 10.3Z" fill="white"/>
  <text x="45" y="15" fill="white" font-family="SF Pro Display, -apple-system" font-size="8">Download on the</text>
  <text x="45" y="30" fill="white" font-family="SF Pro Display, -apple-system" font-size="18" font-weight="600">App Store</text>
</svg>
